<?xml version="1.0" encoding="utf-8"?>
<!-- Generator: Adobe Illustrator 16.2.0, SVG Export Plug-In . SVG Version: 6.00 Build 0)  -->
<!DOCTYPE svg PUBLIC "-//W3C//DTD SVG 1.1//EN" "http://www.w3.org/Graphics/SVG/1.1/DTD/svg11.dtd">
<svg version="1.1" id="Слой_1" xmlns="http://www.w3.org/2000/svg" xmlns:xlink="http://www.w3.org/1999/xlink" x="0px" y="0px"
	 width="26px" height="26px" viewBox="0 0 26 26" enable-background="new 0 0 26 26" xml:space="preserve">
<path id="Иконка_профиль" fill="#333333" d="M18.465,15.614c-0.078,0-0.155,0.007-0.23,0.021
	c1.418-1.655,2.301-3.974,2.301-6.538C20.535,4.081,17.155,0,13,0c-2.068,0-3.994,0.984-5.424,2.771
	C6.215,4.474,5.465,6.721,5.465,9.098c0,2.563,0.883,4.882,2.301,6.537c-0.075-0.014-0.152-0.021-0.231-0.021
	C3.381,15.614,0,18.995,0,23.15C0,24.722,1.279,26,2.851,26H23.15c1.571,0,2.85-1.278,2.85-2.85
	C26,18.995,22.62,15.614,18.465,15.614z M8.798,16.645C10,17.622,11.446,18.193,13,18.193c1.554,0,3-0.571,4.202-1.548
	c-0.018,0.084-0.026,0.171-0.026,0.258c0,0.712,0.578,1.29,1.289,1.29c2.733,0,4.957,2.225,4.957,4.957
	c0,0.149-0.122,0.271-0.271,0.271H2.851c-0.15,0-0.271-0.122-0.271-0.271c0-2.732,2.223-4.957,4.956-4.957
	c0.711,0,1.289-0.578,1.289-1.29C8.825,16.816,8.816,16.729,8.798,16.645z M13,2.58c2.733,0,4.957,2.924,4.957,6.518
	c0,3.594-2.224,6.518-4.957,6.518c-2.732,0-4.956-2.923-4.957-6.518C8.043,5.504,10.267,2.58,13,2.58z"/>
</svg>
