<?xml version="1.0" encoding="utf-8"?>
<!-- Generator: Adobe Illustrator 16.2.0, SVG Export Plug-In . SVG Version: 6.00 Build 0)  -->
<!DOCTYPE svg PUBLIC "-//W3C//DTD SVG 1.1//EN" "http://www.w3.org/Graphics/SVG/1.1/DTD/svg11.dtd">
<svg version="1.1" id="Слой_1" xmlns="http://www.w3.org/2000/svg" xmlns:xlink="http://www.w3.org/1999/xlink" x="0px" y="0px"
	 width="29px" height="26px" viewBox="0 0 29 26" enable-background="new 0 0 29 26" xml:space="preserve">
<path id="Иконка_корзина" fill="#333333" d="M13.254,23.516c0,1.373-1.084,2.484-2.422,2.484
	c-1.337,0-2.422-1.111-2.422-2.484c0-1.371,1.085-2.482,2.422-2.482C12.17,21.033,13.254,22.145,13.254,23.516z M21.402,21.033
	c-1.338,0-2.422,1.111-2.422,2.482c0,1.373,1.084,2.484,2.422,2.484s2.422-1.111,2.422-2.484
	C23.824,22.145,22.74,21.033,21.402,21.033z M27.487,7.42L14.07,7.418c-0.671,0-1.215,0.558-1.215,1.247
	c0,0.688,0.544,1.245,1.215,1.245l11.87-0.001l-0.752,2.613l-12.069,0.002c-0.623,0-1.127,0.518-1.127,1.156
	c0,0.638,0.504,1.156,1.127,1.156l11.402,0.005l-0.709,2.444H10.212L9.311,9.908L8.448,2.721C8.379,2.152,7.977,1.686,7.435,1.544
	L1.697,0.043C0.97-0.147,0.229,0.304,0.043,1.051c-0.187,0.747,0.254,1.506,0.982,1.697l4.838,1.266l1.885,14.502
	c0,0,0.064,1.691,1.563,1.691h15.033c1.26,0,1.504-1.346,1.504-1.346l2.979-9.074C28.826,9.787,29.711,7.42,27.487,7.42z"/>
</svg>
