<?xml version="1.0" encoding="utf-8"?>
<!-- Generator: Adobe Illustrator 16.2.0, SVG Export Plug-In . SVG Version: 6.00 Build 0)  -->
<!DOCTYPE svg PUBLIC "-//W3C//DTD SVG 1.1//EN" "http://www.w3.org/Graphics/SVG/1.1/DTD/svg11.dtd">
<svg version="1.1" id="Слой_1" xmlns="http://www.w3.org/2000/svg" xmlns:xlink="http://www.w3.org/1999/xlink" x="0px" y="0px"
	 width="14px" height="12px" viewBox="0 0 14 12" enable-background="new 0 0 14 12" xml:space="preserve">
<g>
	<g>
		<path fill="#333333" d="M5.229,9.707c-0.645,0-1.169,0.512-1.169,1.145C4.06,11.486,4.584,12,5.229,12
			C5.875,12,6.4,11.486,6.4,10.852C6.4,10.219,5.875,9.707,5.229,9.707z"/>
		<path fill="#333333" d="M10.332,9.707c-0.645,0-1.168,0.512-1.168,1.145c0,0.635,0.523,1.148,1.168,1.148
			c0.646,0,1.17-0.514,1.17-1.148C11.502,10.219,10.979,9.707,10.332,9.707z"/>
		<path fill="#333333" d="M13.27,3.424L6.793,3.422c-0.324,0-0.588,0.258-0.588,0.576c0,0.316,0.264,0.573,0.588,0.573h5.73
			L12.16,5.779L6.333,5.78c-0.3,0-0.544,0.238-0.544,0.533s0.244,0.533,0.544,0.533l5.504,0.002l-0.342,1.128H4.931L4.495,4.572
			L4.08,1.256C4.044,0.993,3.851,0.778,3.588,0.711L0.82,0.02C0.468-0.069,0.11,0.139,0.021,0.485
			C-0.07,0.83,0.143,1.181,0.496,1.268l2.335,0.584l0.91,6.693c0,0,0.03,0.781,0.754,0.781h7.257c0.609,0,0.725-0.621,0.725-0.621
			l1.439-4.188C13.916,4.517,14.344,3.424,13.27,3.424z"/>
	</g>
</g>
</svg>
